<svg width="36" height="36" viewBox="0 0 36 36" fill="none" xmlns="http://www.w3.org/2000/svg">
<path d="M11.5948 21.5938C11.5302 21.4814 11.4855 21.3586 11.4626 21.231C11.488 21.3581 11.533 21.4804 11.5948 21.5938ZM11.7574 21.7943C11.8198 21.8562 11.8901 21.9099 11.9681 21.9484C11.8902 21.9086 11.8193 21.8566 11.758 21.7943H11.7574Z" fill="#083042"/>
<path d="M18.0962 28.6782H18.0568C17.6624 28.6798 17.274 28.5815 16.9279 28.3924L9.0017 23.9628C8.53398 23.7006 8.24626 23.2146 8.24626 22.6895V13.6766C8.24626 13.2904 8.31629 12.92 8.4797 12.596L2.28208 9.14679C2.02529 9.68679 1.89311 10.2965 1.9007 10.9372V25.8229C1.90538 26.2535 2.02382 26.6751 2.24402 27.045C2.46421 27.415 2.77833 27.7201 3.15451 27.9295L16.2273 35.2454C16.8039 35.5694 17.4499 35.7238 18.0883 35.7238V35.7162C18.1038 34.7824 18.0962 31.0393 18.0962 28.6782Z" fill="#083042"/>
<path d="M24.3169 14.2312L24.2699 14.162C24.2311 14.108 24.1926 14.0616 24.1538 14.0079C24.1926 14.054 24.2311 14.1083 24.2699 14.162C24.289 14.1827 24.3048 14.2058 24.3169 14.2312ZM17.7924 10.62C17.8318 10.62 17.863 10.6124 17.9021 10.6124C17.863 10.62 17.8239 10.62 17.7924 10.62Z" fill="#3DDB85"/>
<path d="M8.47182 12.5879C8.64556 12.2278 8.92202 11.9271 9.26635 11.7239L16.7251 7.36366C17.0668 7.16302 17.455 7.05531 17.8513 7.05127C18.2475 7.04722 18.6378 7.14697 18.9835 7.3406L26.5205 11.5619C26.8587 11.7507 27.1491 12.0146 27.3693 12.3333L33.4659 8.72997C33.1034 8.20787 32.6269 7.77508 32.0724 7.46435L19.6217 0.496099C19.0518 0.177668 18.4085 0.0137059 17.7557 0.0204645C17.1029 0.0272231 16.4631 0.204467 15.8999 0.53463L3.59017 7.72647C3.02196 8.05838 2.56631 8.55302 2.28207 9.14651L8.47182 12.5879Z" fill="#3DDC84"/>
<path d="M11.6092 14.3246C11.6249 14.2937 11.6404 14.2627 11.6564 14.2402C11.6404 14.2709 11.6252 14.2937 11.6092 14.3246Z" fill="#3DDB85"/>
<path d="M33.4581 8.72998L27.3614 12.3334C27.5949 12.6728 27.7352 13.0739 27.7425 13.4834V22.0643C27.7473 22.4573 27.6474 22.8446 27.4532 23.1863C27.2589 23.528 26.9773 23.8119 26.6372 24.0089L19.1779 28.3697C18.8485 28.5614 18.4763 28.6675 18.0954 28.6782C18.1035 31.032 18.1035 34.7749 18.0878 35.7086V35.7162C18.7416 35.709 19.3825 35.5335 19.9488 35.2066L32.2588 28.0069C33.4035 27.3355 34.1044 26.116 34.0886 24.7964V10.636C34.0808 9.9492 33.8473 9.29332 33.4581 8.72998Z" fill="#4285F4"/>
<path d="M24.4584 21.1463C24.4505 21.1621 24.4505 21.1775 24.4426 21.1936C24.4513 21.1792 24.4567 21.163 24.4584 21.1463ZM24.3802 14.3325C24.3641 14.2937 24.3408 14.2627 24.3175 14.2242C24.3408 14.2627 24.3644 14.3015 24.3802 14.3325ZM18.7895 24.912L23.7881 21.9875L18.7895 24.9125V24.912ZM24.3956 21.3238C24.3799 21.3626 24.3566 21.4011 24.3405 21.4399C24.3566 21.3935 24.372 21.3547 24.3956 21.3238Z" fill="#4285F4"/>
<path d="M11.5869 14.3938C11.5235 14.5437 11.4841 14.7027 11.4702 14.8649C11.4623 14.9262 11.4623 14.9881 11.4623 15.0578V21.0999C11.4623 21.146 11.4623 21.1848 11.4702 21.2313C11.486 21.362 11.5327 21.4858 11.6024 21.5941C11.6494 21.6711 11.7037 21.7324 11.7585 21.7943C11.8209 21.8562 11.8907 21.9099 11.9683 21.949L17.2789 24.9198C17.5099 25.0474 17.7698 25.1137 18.0337 25.1125H18.0886C18.3361 25.1041 18.5774 25.0324 18.7895 24.9044L23.7881 21.9797C23.8193 21.9642 23.8427 21.9408 23.8739 21.9257C23.9285 21.8871 23.983 21.8483 24.0297 21.8019C24.103 21.7355 24.1704 21.6635 24.2319 21.5859C24.2707 21.5319 24.3098 21.4782 24.3411 21.4239C24.3641 21.3857 24.3802 21.3468 24.3953 21.308C24.4111 21.2701 24.4347 21.2234 24.4502 21.1773C24.4578 21.1615 24.4578 21.146 24.4657 21.1308C24.5128 20.981 24.5364 20.8247 24.5357 20.6676V14.9186C24.5357 14.8109 24.5199 14.7105 24.4969 14.6103C24.4814 14.5406 24.4575 14.4787 24.4344 14.4168L24.3877 14.3246C24.3723 14.2858 24.3484 14.2551 24.3253 14.2163L24.2786 14.1471C24.2398 14.0928 24.2007 14.0467 24.1619 13.9927C24.0351 13.8449 23.8819 13.7219 23.7102 13.6299L18.6573 10.7983C18.5702 10.749 18.4789 10.7076 18.3845 10.6745C18.2578 10.6363 18.127 10.6131 17.9949 10.6053H17.8937C17.8552 10.6053 17.8239 10.6053 17.7851 10.6127C17.6957 10.6207 17.607 10.6362 17.5202 10.6591C17.5047 10.6667 17.4892 10.6667 17.4735 10.6748C17.3568 10.7058 17.2477 10.7595 17.1385 10.8211L12.1399 13.7461C11.9948 13.8313 11.8677 13.944 11.7658 14.0779C11.7273 14.1319 11.6882 14.1859 11.657 14.2399C11.6415 14.2709 11.626 14.2939 11.6103 14.3249L11.5869 14.3938Z" fill="#D6F0FF"/>
<path d="M18.0878 25.1122H18.0332C17.7691 25.1136 17.509 25.0474 17.2778 24.9198L11.9678 21.9487C11.8914 21.9063 11.8208 21.8544 11.7574 21.7943C11.6965 21.7348 11.6441 21.6672 11.6016 21.5935C11.5369 21.4811 11.4922 21.3583 11.4694 21.2307C11.4612 21.1848 11.4612 21.146 11.4612 21.0999V15.0572C11.4612 14.9956 11.4612 14.9264 11.4694 14.8643C11.4843 14.7026 11.5234 14.5437 11.5861 14.3935L10.1531 13.5219L8.47126 12.5881C8.31545 12.9121 8.23782 13.2823 8.23782 13.6684V22.6816C8.24241 22.9412 8.31445 23.1951 8.44685 23.4183C8.57924 23.6416 8.76745 23.8266 8.99298 23.9551L16.9121 28.3921C17.2569 28.5848 17.6462 28.6834 18.0411 28.6779H18.0804C18.0804 27.5279 18.0723 26.71 18.0723 26.71L18.0878 25.1122Z" fill="#083042"/>
<path d="M18.0878 25.1122H18.0332C17.7691 25.1136 17.509 25.0474 17.2778 24.9198L11.9678 21.9487C11.8914 21.9063 11.8208 21.8544 11.7574 21.7943C11.6965 21.7348 11.6441 21.6672 11.6016 21.5935C11.5369 21.4811 11.4922 21.3583 11.4694 21.2307C11.4612 21.1848 11.4612 21.146 11.4612 21.0999V15.0572C11.4612 14.9956 11.4612 14.9264 11.4694 14.8643C11.4843 14.7026 11.5234 14.5437 11.5861 14.3935L10.1531 13.5219L8.47126 12.5881C8.31545 12.9121 8.23782 13.2823 8.23782 13.6684V22.6816C8.24241 22.9412 8.31445 23.1951 8.44685 23.4183C8.57924 23.6416 8.76745 23.8266 8.99298 23.9551L16.9121 28.3921C17.2569 28.5848 17.6462 28.6834 18.0411 28.6779H18.0804C18.0804 27.5279 18.0723 26.71 18.0723 26.71L18.0878 25.1122Z" fill="#041619"/>
<path d="M26.5123 11.5619L18.9751 7.34032C18.6294 7.14679 18.2391 7.04711 17.8429 7.05121C17.4468 7.0553 17.0586 7.16302 16.7169 7.36366L9.25819 11.7242C8.91207 11.9254 8.63498 12.2267 8.46338 12.5884L10.1537 13.5222L11.5861 14.3938L11.6092 14.3246C11.6249 14.2934 11.6404 14.2627 11.6558 14.2397C11.6871 14.1857 11.7262 14.1317 11.765 14.0777C11.8662 13.9463 11.9908 13.8386 12.139 13.7458L17.1374 10.8208C17.2443 10.7608 17.3559 10.712 17.4724 10.6745C17.4881 10.6669 17.5036 10.6669 17.5191 10.6588C17.6059 10.6352 17.6941 10.6198 17.7837 10.6127C17.8225 10.6127 17.8538 10.6048 17.8928 10.6048H17.9941C18.126 10.6132 18.2565 10.636 18.3833 10.674C18.4793 10.7043 18.5702 10.7457 18.6559 10.798L23.7088 13.6302C23.8793 13.724 24.0324 13.8467 24.1611 13.9927C24.1996 14.0388 24.239 14.0931 24.2775 14.1468L24.3245 14.216L25.6168 13.3599L27.3687 12.3182C27.1429 12.0169 26.8549 11.7469 26.5123 11.5619Z" fill="#3DDB85"/>
<path d="M26.5123 11.5619L18.9751 7.34032C18.6294 7.14679 18.2391 7.04711 17.8429 7.05121C17.4468 7.0553 17.0586 7.16302 16.7169 7.36366L9.25819 11.7242C8.91207 11.9254 8.63498 12.2267 8.46338 12.5884L10.1537 13.5222L11.5861 14.3938L11.6092 14.3246C11.6249 14.2934 11.6404 14.2627 11.6558 14.2397C11.6871 14.1857 11.7262 14.1317 11.765 14.0777C11.8662 13.9463 11.9908 13.8386 12.139 13.7458L17.1374 10.8208C17.2443 10.7608 17.3559 10.712 17.4724 10.6745C17.4881 10.6669 17.5036 10.6669 17.5191 10.6588C17.6059 10.6352 17.6941 10.6198 17.7837 10.6127C17.8225 10.6127 17.8538 10.6048 17.8928 10.6048H17.9941C18.126 10.6132 18.2565 10.636 18.3833 10.674C18.4793 10.7043 18.5702 10.7457 18.6559 10.798L23.7088 13.6302C23.8793 13.724 24.0324 13.8467 24.1611 13.9927C24.1996 14.0388 24.239 14.0931 24.2775 14.1468L24.3245 14.216L25.6168 13.3599L27.3687 12.3182C27.1429 12.0169 26.8549 11.7469 26.5123 11.5619Z" fill="#37BF6E"/>
<path d="M24.3169 14.2318C24.3402 14.27 24.356 14.3009 24.3791 14.3398L24.426 14.4323C24.4914 14.5915 24.5258 14.7617 24.5273 14.9338V20.6831C24.5279 20.8401 24.5042 20.9963 24.457 21.146C24.4494 21.1612 24.4494 21.1769 24.4415 21.1921C24.4267 21.2373 24.4085 21.2813 24.3872 21.3238C24.3712 21.3617 24.3478 21.4005 24.3324 21.4391C24.3014 21.4934 24.2623 21.5471 24.2232 21.6014C24.1623 21.679 24.0946 21.7512 24.021 21.8171C23.9743 21.8635 23.9198 21.902 23.8652 21.9408C23.834 21.956 23.8109 21.9794 23.7797 21.9948L18.7808 24.9193C18.5658 25.0406 18.3262 25.1119 18.0799 25.1279V26.7252C18.0799 26.7252 18.0799 27.5433 18.0878 28.6931C18.4693 28.6861 18.8424 28.5798 19.1703 28.3845L26.6291 24.024C27.3223 23.6154 27.7428 22.8743 27.7349 22.0798V13.4985C27.7273 13.0817 27.5873 12.688 27.3538 12.3485L25.6014 13.3905L24.3169 14.2318Z" fill="#4285F4"/>
<path d="M24.3169 14.2318C24.3402 14.27 24.356 14.3009 24.3791 14.3398L24.426 14.4323C24.4914 14.5915 24.5258 14.7617 24.5273 14.9338V20.6831C24.5279 20.8401 24.5042 20.9963 24.457 21.146C24.4494 21.1612 24.4494 21.1769 24.4415 21.1921C24.4267 21.2373 24.4085 21.2813 24.3872 21.3238C24.3712 21.3617 24.3478 21.4005 24.3324 21.4391C24.3014 21.4934 24.2623 21.5471 24.2232 21.6014C24.1623 21.679 24.0946 21.7512 24.021 21.8171C23.9743 21.8635 23.9198 21.902 23.8652 21.9408C23.834 21.956 23.8109 21.9794 23.7797 21.9948L18.7808 24.9193C18.5658 25.0406 18.3262 25.1119 18.0799 25.1279V26.7252C18.0799 26.7252 18.0799 27.5433 18.0878 28.6931C18.4693 28.6861 18.8424 28.5798 19.1703 28.3845L26.6291 24.024C27.3223 23.6154 27.7428 22.8743 27.7349 22.0798V13.4985C27.7273 13.0817 27.5873 12.688 27.3538 12.3485L25.6014 13.3905L24.3169 14.2318Z" fill="#3870B2"/>
<path d="M17.4811 10.6824C17.3641 10.7134 17.255 10.7674 17.1464 10.8287L12.1475 13.7537L17.1459 10.8292C17.2498 10.7646 17.3625 10.7153 17.4806 10.683L17.4811 10.6824Z" fill="#D6F0FF"/>
<path opacity="0.1" d="M17.4811 10.6824C17.3641 10.7134 17.255 10.7674 17.1464 10.8287L12.1475 13.7537L17.1459 10.8292C17.2498 10.7646 17.3625 10.7153 17.4806 10.683L17.4811 10.6824Z" fill="black"/>
<path d="M24.426 14.425C24.4499 14.488 24.4706 14.5522 24.4879 14.6174C24.4724 14.5558 24.4485 14.4942 24.4254 14.425H24.426Z" fill="#D6F0FF"/>
<path opacity="0.1" d="M24.426 14.425C24.4499 14.488 24.4706 14.5522 24.4879 14.6174C24.4724 14.5558 24.4485 14.4942 24.4254 14.425H24.426Z" fill="black"/>
</svg>
